<svg width="36" height="48" viewBox="0 0 36 48" fill="none" xmlns="http://www.w3.org/2000/svg">
<path d="M34.5 11.5H1.5V29.5H34.5V11.5Z" fill="#CCCCCC"/>
<path d="M16.5 15.5H3.5V29.5H16.5V15.5Z" fill="white"/>
<path d="M32.5 15.5H19.5V29.5H32.5V15.5Z" fill="white"/>
<path d="M3.5 26C2.572 26.001 1.682 26.37 1.026 27.026C0.370001 27.682 0.001 28.572 0 29.5V30C0 34.774 1.89597 39.352 5.27197 42.728C8.64797 46.104 13.226 48 18 48C22.774 48 27.352 46.104 30.728 42.728C34.103 39.352 36 34.774 36 30V29.5C35.999 28.572 35.63 27.682 34.973 27.026C34.317 26.37 33.428 26.001 32.5 26H3.5Z" fill="#CCCCCC"/>
<path d="M8.73599 9.61848e-06C8.45699 -0.000990382 8.18399 0.0760016 7.94699 0.223002C7.70899 0.369002 7.51798 0.57902 7.39398 0.82902L1.39398 12.829C1.27998 13.058 1.226 13.312 1.237 13.567C1.249 13.823 1.32499 14.071 1.45999 14.289C1.59399 14.506 1.78197 14.686 2.00497 14.81C2.22897 14.935 2.47999 15 2.73599 15H33.264C33.519 15 33.771 14.935 33.994 14.81C34.218 14.686 34.405 14.506 34.54 14.289C34.674 14.071 34.751 13.823 34.762 13.567C34.774 13.312 34.72 13.058 34.605 12.829L28.605 0.82902C28.481 0.57902 28.29 0.369002 28.053 0.223002C27.816 0.0760016 27.542 -0.000990382 27.264 9.61848e-06H8.73599Z" fill="#6C63FF"/>
</svg>
