<svg width="713" height="142" viewBox="0 0 713 142" fill="none" xmlns="http://www.w3.org/2000/svg">
<g id="Frame 1">
<path id="Vector" d="M120 91C137.673 91 152 76.6731 152 59C152 41.3269 137.673 27 120 27C102.327 27 88 41.3269 88 59C88 76.6731 102.327 91 120 91Z" fill="#FFFFA5"/>
<g id="cloud-right">
<path id="Vector_2" d="M621.446 52.0949H531.972C525.983 52.0949 521.127 56.962 521.127 62.9659V62.966C521.127 68.9699 525.983 73.837 531.972 73.837H621.446C627.435 73.837 632.291 68.9699 632.291 62.9659C632.291 56.962 627.435 52.0949 621.446 52.0949Z" fill="#D6D6D6"/>
<path id="Vector_3" d="M594.332 73.837H504.859C498.87 73.837 494.014 78.7042 494.014 84.7081V84.7081C494.014 90.7121 498.87 95.5792 504.859 95.5792H594.332C600.322 95.5792 605.178 90.7121 605.178 84.7081C605.178 78.7042 600.322 73.837 594.332 73.837Z" fill="#D6D6D6"/>
<path id="Vector_4" d="M621.446 95.5792H531.972C525.983 95.5792 521.127 100.446 521.127 106.45V106.45C521.127 112.454 525.983 117.321 531.972 117.321H621.446C627.435 117.321 632.291 112.454 632.291 106.45C632.291 100.446 627.435 95.5792 621.446 95.5792Z" fill="#D6D6D6"/>
</g>
<g id="Group" opacity="0.3">
<path id="Vector_5" opacity="0.3" d="M28.8074 110.07H52.5313C52.5313 110.07 43.5919 125.923 28.8074 110.07Z" fill="#030B44"/>
<path id="Vector_6" opacity="0.3" d="M30.239 116.815L45.7915 98.8577C45.7915 98.8577 51.8744 116.017 30.239 116.815Z" fill="#030B44"/>
</g>
<g id="Group_2">
<path id="Vector_7" d="M221.854 31.5887H132.38C126.391 31.5887 121.535 36.4559 121.535 42.4598V42.4598C121.535 48.4637 126.391 53.3309 132.38 53.3309H221.854C227.843 53.3309 232.699 48.4637 232.699 42.4598C232.699 36.4559 227.843 31.5887 221.854 31.5887Z" fill="#D6D6D6"/>
<path id="Vector_8" d="M194.74 53.3309H105.267C99.2777 53.3309 94.4222 58.198 94.4222 64.2019V64.202C94.4222 70.2059 99.2777 75.073 105.267 75.073H194.74C200.73 75.073 205.586 70.2059 205.586 64.2019C205.586 58.198 200.73 53.3309 194.74 53.3309Z" fill="#D6D6D6"/>
<path id="Vector_9" d="M221.854 75.073H132.38C126.391 75.073 121.535 79.9402 121.535 85.9441V85.9441C121.535 91.948 126.391 96.8152 132.38 96.8152H221.854C227.843 96.8152 232.699 91.948 232.699 85.9441C232.699 79.9402 227.843 75.073 221.854 75.073Z" fill="#D6D6D6"/>
</g>
<g id="Group_3" opacity="0.3">
<path id="Vector_10" opacity="0.3" d="M289.032 24.1671H312.756C312.756 24.1671 303.816 40.0208 289.032 24.1671Z" fill="#030B44"/>
<path id="Vector_11" opacity="0.3" d="M290.464 30.9129L306.016 12.9554C306.016 12.9554 312.099 30.1151 290.464 30.9129Z" fill="#030B44"/>
</g>
<g id="Group_4" opacity="0.3">
<path id="Vector_12" opacity="0.3" d="M661.538 111.085H686.987C686.987 111.085 677.397 128.092 661.538 111.085Z" fill="#030B44"/>
<path id="Vector_13" opacity="0.3" d="M663.073 118.322L679.757 99.0581C679.757 99.0581 686.282 117.466 663.073 118.322Z" fill="#030B44"/>
</g>
</g>
</svg>
