<svg width="713" height="121" viewBox="0 0 713 121" fill="none" xmlns="http://www.w3.org/2000/svg">
<g id="sky">
<path id="Vector" d="M71.5 86C89.4493 86 104 71.4493 104 53.5C104 35.5507 89.4493 21 71.5 21C53.5507 21 39 35.5507 39 53.5C39 71.4493 53.5507 86 71.5 86Z" fill="#FFFFA5"/>
<g id="cloud-right">
<path id="Vector_2" d="M579.695 58H494.25C488.53 58 483.893 62.701 483.893 68.5V68.5C483.893 74.299 488.53 79 494.25 79H579.695C585.415 79 590.053 74.299 590.053 68.5C590.053 62.701 585.415 58 579.695 58Z" fill="#D6D6D6"/>
<path id="Vector_3" d="M553.803 79H468.357C462.637 79 458 83.701 458 89.5V89.5C458 95.299 462.637 100 468.357 100H553.803C559.523 100 564.16 95.299 564.16 89.5C564.16 83.701 559.523 79 553.803 79Z" fill="#D6D6D6"/>
<path id="Vector_4" d="M579.695 100H494.25C488.53 100 483.893 104.701 483.893 110.5V110.5C483.893 116.299 488.53 121 494.25 121H579.695C585.415 121 590.053 116.299 590.053 110.5C590.053 104.701 585.415 100 579.695 100Z" fill="#D6D6D6"/>
</g>
<g id="Group" opacity="0.3">
<path id="Vector_5" opacity="0.3" d="M28.8074 111.819H52.676C52.676 111.819 43.682 127.951 28.8074 111.819Z" fill="#030B44"/>
<path id="Vector_6" opacity="0.3" d="M30.2477 118.683L45.8951 100.411C45.8951 100.411 52.0151 117.872 30.2477 118.683Z" fill="#030B44"/>
</g>
<g id="Group_2">
<path id="Vector_7" d="M184.031 31.9605H94.012C87.9858 31.9605 83.1006 36.9131 83.1006 43.0224V43.0225C83.1006 49.1318 87.9858 54.0844 94.012 54.0844H184.031C190.057 54.0844 194.942 49.1318 194.942 43.0224C194.942 36.9131 190.057 31.9605 184.031 31.9605Z" fill="#D6D6D6"/>
<path id="Vector_8" d="M156.752 54.0844H66.7336C60.7074 54.0844 55.8223 59.037 55.8223 65.1463V65.1464C55.8223 71.2557 60.7074 76.2083 66.7336 76.2083H156.752C162.778 76.2083 167.664 71.2557 167.664 65.1463C167.664 59.037 162.778 54.0844 156.752 54.0844Z" fill="#D6D6D6"/>
<path id="Vector_9" d="M184.031 76.2083H94.012C87.9858 76.2083 83.1006 81.1609 83.1006 87.2702V87.2703C83.1006 93.3796 87.9858 98.3322 94.012 98.3322H184.031C190.057 98.3322 194.942 93.3796 194.942 87.2702C194.942 81.1609 190.057 76.2083 184.031 76.2083Z" fill="#D6D6D6"/>
</g>
<g id="Group_3" opacity="0.3">
<path id="Vector_10" opacity="0.3" d="M290.619 24.4086H314.487C314.487 24.4086 305.493 40.5407 290.619 24.4086Z" fill="#030B44"/>
<path id="Vector_11" opacity="0.3" d="M292.059 31.2729L307.706 13C307.706 13 313.826 30.461 292.059 31.2729Z" fill="#030B44"/>
</g>
<g id="Group_4" opacity="0.3">
<path id="Vector_12" opacity="0.3" d="M639 91.2383H664.604C664.604 91.2383 654.956 108.543 639 91.2383Z" fill="#030B44"/>
<path id="Vector_13" opacity="0.3" d="M640.545 98.6018L657.33 79C657.33 79 663.895 97.7309 640.545 98.6018Z" fill="#030B44"/>
</g>
</g>
</svg>
