<svg width="299" height="298" viewBox="0 0 299 298" fill="none" xmlns="http://www.w3.org/2000/svg">
<path d="M149.838 298C67.6788 298 0.837708 231.159 0.837708 149C0.837708 66.8413 67.6788 0 149.838 0C231.997 0 298.838 66.8413 298.838 149C298.838 231.159 231.997 298 149.838 298ZM149.838 2C68.7815 2 2.83771 67.9438 2.83771 149C2.83771 230.056 68.7815 296 149.838 296C230.894 296 296.838 230.056 296.838 149C296.838 67.9438 230.894 2 149.838 2Z" fill="#CCCCCC"/>
<path d="M149.838 138C149.572 138 149.318 137.895 149.131 137.707C148.943 137.52 148.838 137.265 148.838 137V1C148.838 0.734784 148.943 0.480444 149.131 0.292908C149.318 0.105371 149.572 0 149.838 0C150.103 0 150.357 0.105371 150.545 0.292908C150.732 0.480444 150.838 0.734784 150.838 1V137C150.838 137.265 150.732 137.52 150.545 137.707C150.357 137.895 150.103 138 149.838 138V138Z" fill="#CCCCCC"/>
<path d="M297.838 150H161.838C161.572 150 161.318 149.895 161.131 149.707C160.943 149.52 160.838 149.265 160.838 149C160.838 148.735 160.943 148.48 161.131 148.293C161.318 148.105 161.572 148 161.838 148H297.838C298.103 148 298.357 148.105 298.545 148.293C298.732 148.48 298.838 148.735 298.838 149C298.838 149.265 298.732 149.52 298.545 149.707C298.357 149.895 298.103 150 297.838 150Z" fill="#CCCCCC"/>
<path d="M137.838 150H1.90213C1.63691 150 1.38257 149.895 1.19504 149.707C1.0075 149.52 0.90213 149.265 0.90213 149C0.90213 148.735 1.0075 148.48 1.19504 148.293C1.38257 148.105 1.63691 148 1.90213 148H137.838C138.103 148 138.357 148.105 138.545 148.293C138.732 148.48 138.838 148.735 138.838 149C138.838 149.265 138.732 149.52 138.545 149.707C138.357 149.895 138.103 150 137.838 150Z" fill="#CCCCCC"/>
<path d="M149.838 298C149.572 298 149.318 297.895 149.131 297.707C148.943 297.52 148.838 297.265 148.838 297V161C148.838 160.735 148.943 160.48 149.131 160.293C149.318 160.105 149.572 160 149.838 160C150.103 160 150.357 160.105 150.545 160.293C150.732 160.48 150.838 160.735 150.838 161V297C150.838 297.265 150.732 297.52 150.545 297.707C150.357 297.895 150.103 298 149.838 298V298Z" fill="#CCCCCC"/>
<path d="M158.655 141.874C158.457 141.874 158.264 141.815 158.099 141.705C157.935 141.596 157.807 141.439 157.731 141.257C157.655 141.074 157.635 140.873 157.674 140.679C157.713 140.485 157.808 140.307 157.948 140.167L253.691 44.4234C253.784 44.3305 253.894 44.2569 254.015 44.2066C254.137 44.1564 254.267 44.1305 254.398 44.1305C254.529 44.1305 254.659 44.1564 254.781 44.2066C254.902 44.2569 255.012 44.3305 255.105 44.4234C255.198 44.5162 255.272 44.6265 255.322 44.7478C255.372 44.8691 255.398 44.9991 255.398 45.1304C255.398 45.2617 255.372 45.3917 255.322 45.5131C255.272 45.6344 255.198 45.7446 255.105 45.8375L159.362 141.581C159.269 141.674 159.159 141.748 159.037 141.798C158.916 141.848 158.786 141.874 158.655 141.874V141.874Z" fill="#CCCCCC"/>
<path d="M141.021 141.874C140.89 141.874 140.76 141.848 140.638 141.798C140.517 141.748 140.407 141.674 140.314 141.581L44.5704 45.8374C44.3829 45.6499 44.2775 45.3956 44.2775 45.1304C44.2775 44.8652 44.3829 44.6108 44.5704 44.4233C44.7579 44.2358 45.0122 44.1305 45.2774 44.1305C45.5426 44.1305 45.7969 44.2358 45.9845 44.4233L141.728 140.167C141.868 140.307 141.963 140.485 142.002 140.679C142.04 140.873 142.02 141.074 141.945 141.257C141.869 141.439 141.741 141.595 141.577 141.705C141.412 141.815 141.219 141.874 141.021 141.874L141.021 141.874Z" fill="#CCCCCC"/>
<path d="M254.398 253.87C254.267 253.87 254.137 253.844 254.015 253.794C253.894 253.743 253.784 253.67 253.691 253.577L157.948 157.833C157.76 157.645 157.655 157.391 157.655 157.126C157.655 156.861 157.76 156.606 157.948 156.419C158.135 156.231 158.389 156.126 158.655 156.126C158.92 156.126 159.174 156.231 159.362 156.419L255.105 252.163C255.245 252.302 255.34 252.481 255.379 252.675C255.417 252.868 255.397 253.07 255.322 253.252C255.246 253.435 255.118 253.591 254.953 253.701C254.789 253.811 254.596 253.87 254.398 253.87L254.398 253.87Z" fill="#CCCCCC"/>
<path d="M45.2774 253.87C45.0796 253.87 44.8863 253.811 44.7219 253.701C44.5575 253.591 44.4294 253.435 44.3537 253.252C44.278 253.07 44.2583 252.869 44.2968 252.675C44.3354 252.481 44.4306 252.302 44.5704 252.163L140.314 156.419C140.407 156.326 140.517 156.252 140.638 156.202C140.76 156.152 140.89 156.126 141.021 156.126C141.152 156.126 141.282 156.152 141.404 156.202C141.525 156.252 141.635 156.326 141.728 156.419C141.821 156.512 141.895 156.622 141.945 156.743C141.995 156.865 142.021 156.995 142.021 157.126C142.021 157.257 141.995 157.387 141.945 157.509C141.895 157.63 141.821 157.74 141.728 157.833L45.9844 253.577C45.8917 253.67 45.7815 253.744 45.6602 253.794C45.5388 253.844 45.4087 253.87 45.2774 253.87V253.87Z" fill="#CCCCCC"/>
<path d="M149.838 251.5C129.565 251.5 109.748 245.488 92.8918 234.226C76.0357 222.963 62.898 206.954 55.1401 188.225C47.3821 169.496 45.3522 148.886 49.3072 129.003C53.2622 109.12 63.0244 90.8565 77.3593 76.5216C91.6941 62.1867 109.958 52.4245 129.841 48.4695C149.724 44.5145 170.333 46.5444 189.063 54.3024C207.792 62.0604 223.801 75.198 235.063 92.0541C246.326 108.91 252.338 128.727 252.338 149C252.307 176.175 241.498 202.229 222.282 221.445C203.066 240.66 177.013 251.469 149.838 251.5V251.5ZM149.838 48.5C129.961 48.5 110.53 54.3942 94.0029 65.4373C77.4758 76.4804 64.5944 92.1763 56.9878 110.54C49.3812 128.904 47.391 149.112 51.2688 168.607C55.1466 188.102 64.7183 206.009 78.7735 220.064C92.8287 234.119 110.736 243.691 130.231 247.569C149.726 251.447 169.933 249.457 188.297 241.85C206.661 234.243 222.357 221.362 233.4 204.835C244.443 188.308 250.338 168.877 250.338 149C250.308 122.355 239.71 96.8099 220.869 77.9691C202.028 59.1282 176.483 48.5301 149.838 48.5V48.5Z" fill="#CCCCCC"/>
<path d="M149.838 161C156.465 161 161.838 155.627 161.838 149C161.838 142.373 156.465 137 149.838 137C143.21 137 137.838 142.373 137.838 149C137.838 155.627 143.21 161 149.838 161Z" fill="#3F3D56"/>
</svg>
